<svg xmlns="http://www.w3.org/2000/svg" viewBox="0 0 1200 800"><g id="Graphic_Elements" data-name="Graphic Elements"><path d="M304,90.3c3.3.48,5.24-4.15,8.58-3.21,2.56.24,5.88,2.09,5.3,5.42-1.53,7.84-4.24,15.36-6.79,22.87a2.16,2.16,0,0,0-1.79.38l-.4.19-.53.27c-4.17-5.14-8.33-10.3-12.16-15.76-1-1.56-2.28-3.08-2.5-5,0-2.68,2.25-4.4,4.21-5.53s4.05.29,6.08.4m4.42,20.39c-1.71.86-.08,3.8,1.41,2.7C311.36,112.51,310,109.46,308.45,110.69Z"/><path d="M323.43,96.07a3.67,3.67,0,0,1,3.78-1.88,8.13,8.13,0,0,1,5.12,4.35c.67,2.06.3,4.39,1.15,6.4,1.36,2,4,2.88,4.61,5.48s1,6.1-1.41,7.59c-2.51,1.09-5.28.83-7.92.95-5.27.23-10.52-.34-15.78-.28-.4-1-.83-1.93-1.27-2.87,3.66-6.74,7.24-13.6,11.72-19.74m-9,17.59c-1.55,1.29.34,4.18,1.89,2.58C317.79,115,315.83,112.38,314.39,113.66Z"/><path d="M533.38,99.69A26.13,26.13,0,0,1,549,99.52a42.59,42.59,0,0,1,20.1,9.15l-.07.8c-.43,2.38.76,4.57,1.61,6.66,3.45,7.72,7.52,15.09,11.47,22.5-.29.36-.57.71-.83,1.06.22-1.14-.7-1.83-1.28-2.61-2.34-2.76-4.59-5.6-6.89-8.39-1.39-9.87-8-18.25-16.07-22.67-8.32-4.76-18.29-4.79-27.2-2.17-10.93,3.11-20.9,9.57-29.1,18-5.42,5.78-10.32,12.41-13.15,20.15a68.61,68.61,0,0,0-5.19,25.64,28.52,28.52,0,0,0,2.48-5.75,92.78,92.78,0,0,1,7.63-15.68c3-4.34,6.77-8.31,11.54-10.25,4.86-2.22,10.24-2.54,15.45-2.1s10.92,2.51,14.67,6.88a28.93,28.93,0,0,1,4.71,9c1.2,3.42,0,7.07.2,10.61.25,3.2-3,6.3-5.82,4.82-1.12-1.31-.77-3.24-.67-4.84.59-4.75,2.06-9.69.6-14.42-1.29-4.27-4.81-7.14-8.37-9.06a12.26,12.26,0,0,0-5-1.82c1.67,2.17,4.1,3.72,5.1,6.46,1.37,3.67.7,7.81-.4,11.45a6.8,6.8,0,0,1-6.69,4.94,5.26,5.26,0,0,1-.07-2.89c1.11-3.47,3.49-6.29,4.52-9.81.88-3.79-1.37-8-4.8-9.07-5.16-1.81-10.95-.27-15.48,2.73,2.49.26,5.16-1.14,7.49.25,2.86,2.28,4.4,7.51,1.73,10.59a2.81,2.81,0,0,1-3.48.7c-.35-2.5,1.5-4.23,2.14-6.42a4.14,4.14,0,0,0-3.32-3.67,10.28,10.28,0,0,0-5.87.77c-4,2.36-6.77,6.46-9.12,10.57a86.29,86.29,0,0,0-8.43,23c-1.06,3.58.11,7.28.72,10.82a71.79,71.79,0,0,0,14.26,30.13c1.92,2.79,4.58,4.84,6.48,7.65a6.75,6.75,0,0,0-.19,3.54l.13.94c-4.27-2.13-6.88-6.46-9.68-10.32a94.75,94.75,0,0,1-13.75-30.05c-3.62-13.62-3.52-28.51,1.11-41.83a69,69,0,0,1,16.51-26.42A67.66,67.66,0,0,1,533.38,99.69Z"/><path d="M283.26,106.68c.85-2.65,3.48-5.79,6.29-4.31,6.56,3.95,12.35,9.22,18.27,14.19v.6a19.1,19.1,0,0,0,0,2.27,156.17,156.17,0,0,1-18.24,8.15c-1.52.46-3.08,1.14-4.66.88-2.5-.83-3.62-4.05-3.61-6.66-.09-2.93,2.77-4.76,2.65-7.69-.38-2.45-1.78-4.93-.71-7.43m20.41,9.44c-1.21.47-1.65,2.91-.13,3.17,1.18.63,2.25-.83,1.94-2.05A2.39,2.39,0,0,0,303.67,116.12Z"/><path d="M569,109.47a8.06,8.06,0,0,1,7.37-5.22c2.53-.16,4.5,2,6.93,2.38,1.79.11,3.38-1,5-1.68,3.26-1.65,7.36-.2,9.58,2.74a5.48,5.48,0,0,1,.46,5.32c-3.44,9-8.37,17.13-12.64,25.62-1.22,0-2.44-.07-3.63,0-4-7.41-8-14.78-11.47-22.5-.85-2.09-2-4.28-1.61-6.66m13.88,22.79a2.12,2.12,0,0,0-.06,3.48c1.15,1,2.84-.32,2.9-1.77C585.55,132.66,584,131.19,582.92,132.26Z"/><path d="M308.45,110.69c1.57-1.23,2.91,1.82,1.41,2.7C308.37,114.49,306.74,111.55,308.45,110.69Z"/><path d="M314.39,113.66c1.44-1.28,3.4,1.38,1.89,2.58C314.73,117.84,312.84,115,314.39,113.66Z"/><path d="M303.67,116.12a2.39,2.39,0,0,1,1.81,1.12c.31,1.22-.76,2.68-1.94,2.05C302,119,302.46,116.59,303.67,116.12Z"/><path d="M308.93,116l.4-.19c.78,0,1.57,0,2.38,0,.44.94.87,1.89,1.27,2.87l-.16.53c-.66.75-1.36,1.45-2,2.17l-.11.12c-.95-.45-1.87-.89-2.8-1.31l-.05-.76a19.1,19.1,0,0,1,0-2.27A4.78,4.78,0,0,1,308.93,116Z"/><path d="M553.92,121.27c1.4-2.63,4-5.24,7-4.71,1.64.4,2.82,1.85,4,3,2.85,2.91,5.51,6,8.18,9.12,2.3,2.79,4.55,5.63,6.89,8.39.58.78,1.5,1.47,1.28,2.61a8.5,8.5,0,0,0-.93,3l-.46.17c-7.57,1.82-15.13,3.77-22.83,4.92-2.15.21-4.71.87-6.48-.86-2.1-2.17-2.41-5.71-1.87-8.64.71-3.33,4.48-4.79,4.64-8.36,0-2.88-.92-6,.56-8.67m20.44,19.46a11.07,11.07,0,0,0,2.06,1.12c.75,0,1.29-.75,1.93-1.14,0-1.18-.21-2.46-1.35-2.94C575.35,137.4,574.12,139.06,574.36,140.73Z"/><path d="M602.87,119.55c1.58-1.57,3.41-3.6,5.79-3s4.51,3,5.57,5.47,0,5.23.12,7.85c.5,3.49,4.08,5.13,4.77,8.55.49,2.88.17,6.32-1.86,8.46-1.61,1.67-4,1.17-6,1-7.89-1.11-15.64-3.16-23.42-5l-.59-.23a35.19,35.19,0,0,0-1.22-3.35c5.47-6.72,10.84-13.56,16.82-19.76M589,138.27c-.55,1.34.42,2.43,1.31,3.19.84-.54,2.24-.9,2.12-2.28C592.7,137.07,589.61,136.33,589,138.27Z"/><path d="M312.82,119.21c6.17,1.61,12.4,3,18.47,5.07,1.84.72,4.28,1,5.12,3.3s0,5-1.28,7-4.12,1.88-5.69,3.63c-1.4,2-1.44,4.79-3.21,6.5a6.53,6.53,0,0,1-7.79,1.17c-3.37-7.84-5.29-16.25-7.65-24.47.67-.72,1.37-1.42,2-2.17m-.2,4.15a2.56,2.56,0,0,0,3.25.71c-.26-.91.16-2.74-1.15-2.71C313.49,121,313.13,122.5,312.62,123.36Z"/><path d="M307.88,120.19c.93.42,1.85.86,2.8,1.31a70.36,70.36,0,0,0,.47,7.68c.28,5.72.94,11.48.36,17.19-.51,3-4,3.58-6.27,3.23s-3.78-2.44-5.24-4.18-3.75-1.17-5.62-1.45c-2.38-.08-4.18-2.17-5.18-4.34a4.47,4.47,0,0,1,.54-4.89c5.5-5.61,12.1-9.69,18.14-14.55m-1.43,2.88c-1.1,1,0,3.09,1.34,2.59,1.32-.1.9-1.79,1-2.76C308.05,122.84,307,122.23,306.45,123.07Z"/><path d="M310.68,121.5l.11-.12c2.36,8.22,4.28,16.63,7.65,24.47,3.27,12,6.05,24.44,12,35.3,5.47,10.08,13.17,18.44,21.35,25.95a195.31,195.31,0,0,0,24.08,18.72c4.91,3,9.8,6.31,15.24,8.12-2-3.3-4.35-6.35-6.12-9.82A63.45,63.45,0,0,1,377.78,186a42.9,42.9,0,0,1,15.64-27.29c6.06-5.07,13.76-8.35,21.49-7.45,3.18.14,5.43,3.22,6.62,6.14,1.19,2.54-.95,4.91-2.87,6-4.2,2.36-9,2.6-13.62,3.24-7.38.86-14.79,4.65-19.09,11.42-3.34,5.63-4.42,12.42-4.93,19,.1,4.15-.48,8.6,1.25,12.45.81-3.2.91-6.61,2.15-9.68A21.56,21.56,0,0,1,395.57,188a29.39,29.39,0,0,1,14.14-2.32c2.61.26,5.38.94,7.34,3,1.76,1.67,3.54,4.19,2.7,6.88a5.8,5.8,0,0,1-5.92,2.37c-4.41-.74-8.72-2-13.13-2.71a12.54,12.54,0,0,0-9.28,2.21,15.88,15.88,0,0,0-6.51,12.48A28.31,28.31,0,0,0,389,225a53,53,0,0,0,10.08,13,31.85,31.85,0,0,0,6.08,5.19c-2-3.45-5.3-5.84-6.92-9.59-1.5-3.53-2.51-7.68-1.3-11.5,1.37-4.91,5.41-9.21,10.27-9.53a9,9,0,0,1,7.19,3.48c1.1,1.37.28,3.14,0,4.66-3,1.69-6.25-.52-9.4-.19a5.22,5.22,0,0,0-4.5,3.71,13.88,13.88,0,0,0,2,12.39c4.91,7.43,12.61,11.76,20.07,15.5,5.5,2.72,11.58,3.34,17.48,4.38,6.56.84,13.13,1.76,19.76,2,6.27.09,12.55-.19,18.83.08,3.62,0,7.2.67,10.82.78l1.7.14c3.38,1,6.88,1.32,10.3,2.21-2.28,1.16-4.51,2.43-6.73,3.7-13.84-.76-27.75,2.57-40.48,8.42A82.92,82.92,0,0,0,440.2,282c-2.55,3-4.45,6.53-6.59,9.84-10.88,18.06-21.26,36.5-33.31,53.68-12.27,17.58-25.94,34.12-41.63,48.19C341.58,409,322,421.15,300.9,428.43A158.91,158.91,0,0,1,266,436.2a75.05,75.05,0,0,1-34-5.88c-7.23-3.14-14.18-7.61-19.28-14.09-2.66-3.26-4.26-7.32-5.65-11.35-.32-3.42-.73-6.83-.83-10.27.14-.39.43-1.18.57-1.58,1.9,6.92,3.61,13.93,6.24,20.57a4.56,4.56,0,0,0,2.92,2.75c1.7.93,2.79,2.76,4.28,4,6.93,6.23,15.58,9.69,24.29,11.71a87.72,87.72,0,0,0,23.08,1.85c6.12-.37,12.4-1.12,18-4.15-9.34.35-19.15-1-27.16-6.6-4.76-3.34-8.7-8.84-8.68-15.24a22.81,22.81,0,0,1,5.54-14.09c-1.94,4.82-4.18,10-3,15.44.78,4.84,4.47,8.21,8.13,10.63,7.54,4.7,16.27,6.74,24.91,7a42.78,42.78,0,0,0,18.32-3.77A180.23,180.23,0,0,0,355.22,390c15.74-14.22,29.5-30.91,41.55-48.86,11.32-16.52,21.2-34.13,30.61-52a6.15,6.15,0,0,0,.87-3.83c-.61-1.36-2.27-.84-3.28-.47-4.83,2.1-8.19,6.61-11.76,10.51-5.42,5.65-10,12.17-14.71,18.49-12.48,17.07-23.15,35.67-36.47,52-3.44,4.07-7.18,8-11.8,10.49a46.59,46.59,0,0,1-17.73,5c-5.49.2-11.22-1.08-15.67-4.73a28.53,28.53,0,0,1-9.8-24.27c.36-3.48,1.87-7.19,4.92-8.77,2-.9,5.33.26,4.88,3.12-.41,3.73-4.66,4.85-5.6,8.32s-.24,7.1.82,10.39a19,19,0,0,0,7.78,10.23c2.45,1.53,5.06,3.17,8,3.05-1.59-3.24-4.55-5.7-5.16-9.47-.83-5.91,1.57-12.74,6.72-15.42,1.11-.8,2.35-.18,3.48.21.43,3.06-1.45,5.51-3.28,7.54-2.93,3.16-4.49,8.41-2.52,12.6a8,8,0,0,0,7.26,4.42c3.92.09,7.72-1.35,11.28-3,7.16-3.34,12.59-9.66,17.77-15.78C376.1,343.82,385,325,396.49,308.05a120.85,120.85,0,0,1,17.83-21.67c-4.47.94-8.23,3.95-12.2,6.2-13.6,9.18-26.14,20.39-40.93,27.34-10.5,4.61-21.16,9.05-32.39,11-25.06,5.06-50.9,2.32-75.57-3.86-12.71-3.32-25.23-7.41-37.72-11.56-9.6-3-19.49-6.09-29.6-5.35-8.79,1-16.4,7.53-21.06,15.44-2.67,4.37-4.22,9.35-6.21,14.08a37.93,37.93,0,0,1,3-11.84,43.76,43.76,0,0,1,9.67-14.67c2-2,4.45-3.31,6.18-5.59-5.24,1.17-10.11,3.71-15,6-6.91,4-12.65,10-17.86,16.2-3.32,4.19-6.46,8.67-8.24,13.9a59.27,59.27,0,0,0-3.46,14.12,8.47,8.47,0,0,0,3.26,8c2.92,1.52,6.42-.65,7.94-3.47-1.17-.72-2.4-1.26-3.55-2-1.26-1.31-.17-3.31.9-4.29,3.09-2.61,7.86,2,6.29,5.72-1.6,4.67-6.7,7.86-11.18,6.42a6.86,6.86,0,0,1-4.39-4c-.95-2.63-2.23-5.29-2-8.2,0-1.89.89-3.58,1.31-5.38a49.54,49.54,0,0,1,7.18-17.38c5.4-7.79,12.84-13.43,20-19.2,1.9-1.63,4.14-2.86,5.76-4.86-.37-1-1.46-1.1-2.21-1.55a15.19,15.19,0,0,1-7.44-5.87,65.3,65.3,0,0,1-3.44-5.9L152,295c2.66,4.35,5.8,9.12,10.8,10.29,6.19,1.66,12.12-2,18.3-1.54,11.57.54,22.63,4.55,33.66,8,21.62,7.07,43.33,14.45,65.87,17.08,15.48,1.89,31.3,1.75,46.58-1.77-12.14-1-24.31-3.81-35.18-10-17-9.56-30.54-24.87-42.44-40.9a32.41,32.41,0,0,0-6.74-7.35,17.88,17.88,0,0,0-15.33-3,23.35,23.35,0,0,0-11.88,6.83,9.82,9.82,0,0,0-2.62,8.14c1,5.51,4.76,10.71,9.94,12a6.53,6.53,0,0,0,7.57-2.87c2.28-3.32,1.18-8.73-2.34-10.45-1.82-1-4,.82-4.26,2.82.8,1.64,2.75,1.93,4.12,2.84a4,4,0,0,1-5.69-1c-1.4-2-.29-4.88,1.65-5.91,4.14-2.64,10.16.72,10.61,5.91.91,5.69-3.7,11.46-9,11.51-6.2.36-11.37-4.79-13.84-10.57a14.55,14.55,0,0,1,.85-12.75c1.59-2.91,4.28-4.8,6.14-7.47-5.71.24-10.68,3.74-15.58,6.57-7.3,4.44-15.91,7-24.28,5.42a47,47,0,0,1-7-2.07c-.18-.75-.39-1.5-.61-2.22l-.2-.69c9,4.32,19.63,3,28.22-1.78,5.86-3,11.46-6.72,17.65-8.92,5.8-2.37,12.43-2.88,18.27-.35a86.18,86.18,0,0,1,8.88,4.52c1.26-5.68,1.11-11.65,2.69-17.27,1.47-6.07,3.95-12.31,8.77-16.11,2.19-1.69,4.6-3.29,7.31-3.69,1.45-.25,3.37.65,3.32,2.5-.39,1.5-1.67,2.43-2.77,3.28-3.89,2.75-8.65,4.4-11.5,8.59s-3.43,9.57-4.36,14.56c-.6,3.71-1.39,7.84.46,11.3,2.18,4.09,5.5,7.26,8.24,10.9,5.65,7.1,11.75,13.76,17.92,20.33a36,36,0,0,1,5.58,6.28l1.31-.11c.83.09,1.45.93,2.15,1.4,8,6.16,17.17,10.2,26.51,13.29,3.73,1.93,8.35,4.48,12.29,1.67,1.59-.75,3.38-.39,5.07-.62,12.4-1.29,24.3-5.77,35.7-11.05,17.28-8.26,33.45-18.94,49.43-29.79a144.88,144.88,0,0,1,32.93-16.73c3-1.25,6.22-1.79,8.93-3.68-5.79-.69-11.63-.92-17.36-2.17A93.16,93.16,0,0,1,407,247c-14.91-8.32-30.16-16.06-44.15-26.17-7.12-5.35-13.35-11.94-19.84-18.14-7.42-7.56-15-15-22.81-22-4.82-3.85-11.26-5.76-17.12-3.93a14.15,14.15,0,0,0-8.66,6.9A13.16,13.16,0,0,0,295,196.9a6,6,0,0,0,4.18,2.74c1.46-.69.43-2.5.47-3.77a5.22,5.22,0,0,1,5.42-6.06,6.9,6.9,0,0,1,5.49,3.74c.78,2.29-.37,4.71-1.72,6.44-1.89,2.28-4.55,4.16-7.49,3.91-3.93.41-7.36-2.66-9.13-6.24-3-6.55-1.9-15.9,4-20.14,4.63-3.27,10.32-5,15.83-3.93,4.55,1,8.68,3.6,12.35,6.62a18,18,0,0,0,3.06,2c-1.53-3.9-3.6-7.54-5.1-11.47a121.9,121.9,0,0,1-6.28-22.41c-1.38-6.47-2.41-13.11-5-19.18A70.36,70.36,0,0,1,310.68,121.5Z"/><path d="M312.62,123.36c.51-.86.87-2.35,2.1-2,1.31,0,.89,1.8,1.15,2.71A2.56,2.56,0,0,1,312.62,123.36Z"/><path d="M306.45,123.07c.58-.84,1.6-.23,2.38-.17-.14,1,.28,2.66-1,2.76C306.45,126.16,305.35,124.05,306.45,123.07Z"/><path d="M582.92,132.26c1.11-1.07,2.63.4,2.84,1.71-.06,1.45-1.75,2.82-2.9,1.77A2.12,2.12,0,0,1,582.92,132.26Z"/><path d="M589,138.27c.63-1.94,3.72-1.2,3.43.91.12,1.38-1.28,1.74-2.12,2.28C589.4,140.7,588.43,139.61,589,138.27Z"/><path d="M437.23,142c5.64-1.73,11.3-3.69,17.18-4.05,5.57.19,10.74,3.44,14.36,7.92,2,2.5,4.28,4.85,5.6,7.88-3.39-1.54-6.13-4.3-9.39-6.11-3-1.78-6.15-4-9.67-3.19,1.73,1.93,4.3,2.43,6.32,3.91,3.59,2.46,7.46,4.66,10.35,8.1.26,1.06-.9,1.39-1.55,1.77a17.3,17.3,0,0,1-11.82,1c-6.7-3.68-11.12-11-18.06-14.2a12.6,12.6,0,0,0-6-1.41A6.5,6.5,0,0,1,437.23,142Z"/><path d="M574.36,140.73c-.24-1.67,1-3.33,2.64-3,1.14.48,1.32,1.76,1.35,2.94-.64.39-1.18,1.11-1.93,1.14A11.07,11.07,0,0,1,574.36,140.73Z"/><path d="M581.29,139.69c.26-.35.54-.7.83-1.06,1.19-.07,2.41,0,3.63,0l.3.68a35.19,35.19,0,0,1,1.22,3.35l.59.23-.73.55-.32.24-2.56,1.95-.37.26-.33-.21a19.56,19.56,0,0,1-2.62-1.92l-.28-.24-.75-.64.46-.17A8.5,8.5,0,0,1,581.29,139.69Z"/><path d="M751.5,140.4c2.3-.29,4.74-.83,7,.11a33.49,33.49,0,0,1,10,3.11,84.72,84.72,0,0,1,24.16,22.72c5.73,7.91,10.66,16.45,16.22,24.5,9.23,14.15,19.7,27.29,29.06,41.34,13.1,19,23.36,40.08,33.66,61,4.93,10.21,9.85,20.42,14.64,30.72,2.68,4.95,4.72,10.29,7.68,15.06a323.74,323.74,0,0,0,21.53,34.28c3.32,4.39,6.31,9.07,9.8,13.3,5.55,7.09,11.25,14,17,20.95.88,1.05,1.76,2.11,2.66,3.14,4.24,5,8.46,10,12.78,14.93,1.55,1.79,3,3.71,4.57,5.5,4.37,4.65,8.44,9.66,12.56,14.59.63.8,1.32,1.59,2,2.36a211.42,211.42,0,0,1,19.76,25.87c6.22,9.3,11.21,19.51,17.76,28.55,5.86,8,9.89,17.23,15,25.73a43.84,43.84,0,0,1,3.8,9.41,20.19,20.19,0,0,1-.83,10.06c-7.51-6-14.73-12.39-22.11-18.55-4.37-4-9-7.69-13.29-11.8-3.46-2.82-6.49-6.22-10-8.94-6.94-7.06-14.24-13.73-21-21.06-5.26-5.49-10.18-11.35-15.3-17,2.15,5.22,5.24,9.89,7.49,15.05,7.24,14.6,14,29.49,21.25,44.1,1.95,4.72,4.6,9,6.75,13.66,2.33,4.79,5.21,9.23,7.48,14.07,5.89,10.16,11.9,20.29,18.84,29.66,16.07,23,34.59,44.26,46.8,70.13,1.1,3.23,3.22,6,3.83,9.43-1.74-.89-2.53-2.87-3.65-4.43q-39.52-59.79-79.15-119.53c-3.43-5.4-7.18-10.55-10.52-16-2.05-2.68-3.61-5.8-5.85-8.29,3.45,11.23,6.34,22.65,9.64,33.94,3.78,13.92,7.74,27.78,11.54,41.7,1.38,4.49,2.33,9.17,4.42,13.37,7.67,18.12,14.57,36.77,18.6,56.29,1.25,4.89,1.72,10,3.13,14.83,1.08,4,1.86,8.15,2.67,12.27.77,3.69.4,7.5.77,11.25a38.87,38.87,0,0,1-.49,9.39,3.57,3.57,0,0,1-1,1.92c-.67-3.74-.11-7.61-.9-11.33-.68-3.23-.44-6.55-.67-9.81-1.18-6.23-1.24-12.67-2.9-18.8-1.3-5.47-3.57-10.58-5.05-16-4.39-12.35-9.14-24.6-12.38-37.39-1.74-5.77-3.11-11.69-5-17.39-9.52-22-21.24-42.75-30.5-64.86-6.24-13.56-11.9-27.49-19.39-40.32-4.91-9.31-11.2-17.67-17.76-25.64C915.12,467,911,463,907.42,458.6c-1.51-1.68-3.27-3.05-4.65-4.85-1.8-2.33-4.13-4.09-5.91-6.44a61.86,61.86,0,0,0-4.4-4.61c-3.35-3.86-6.78-7.67-10.22-11.43l-.69-.8c-.76-.9-1.51-1.8-2.24-2.71-2.73-3.2-5.54-6.31-8.31-9.47-3.07-2.75-5.45-6.26-8.53-9a184.3,184.3,0,0,0-15.89-14.26c-3.35-2.53-6.57-5.4-10.28-7.26A39.39,39.39,0,0,0,824.08,392,26.63,26.63,0,0,0,822,390.2a27.46,27.46,0,0,1,9.59-5.31c-3.52-2.22-7.21-4.08-10.75-6.25-2.93-2-6.45-1.84-9.76-1.94s-7-1.06-10.29.28c-1.62.64-2.69,2.22-3.54,3.77-1,2.17-1.89,4.4-2.71,6.66-.47,1.32-.92,2.64-1.37,4-.09-.19-.27-.56-.35-.75a13.45,13.45,0,0,1-.6-2c-.31-1.59.37-4.18-1.55-4.69-.94-.42-1.82.45-2.64.79s-1.59,1-2.37,1.51c-2.25,1.32-4.41,2.81-6.64,4.16.42-2.76,2.13-5,3.8-7.07a24.14,24.14,0,0,1,8.31-5.74c5.6-1.65,11.24-3.34,16.51-6.06a27.08,27.08,0,0,0-2.39-1.72c-2.45-1.44-4.93-2.8-7.38-4.21-4.61-2.69-9.2-5.41-13.59-8.52-9-5.6-17.34-12.5-25.3-19.75-7.89-8.13-15.35-17-20.49-27.53a93.65,93.65,0,0,1-8.69-22.71,64.76,64.76,0,0,1-2.14-11.15c-1-4.6-.57-9.37-1-14,.25-7.36.53-14.74,1.41-22.06.37-6.07,1.59-12.09,1-18.19.07-7.26-3.11-13.92-6.62-19.87s-7.31-11.95-10-18.5c-7.58.51-15.2,1-22.77.07-2.21-.32-4.58-.44-6.45-1.9a21,21,0,0,1,10.18-6.15c4.43-1.26,9-2,13.48-2.92a4.37,4.37,0,0,0,3-2.39c1.87-3.31,2.83-7.1,4.14-10.7,1.19-3.89,4.08-6.82,7-9.21a51.23,51.23,0,0,1,20.69-8.67C745,140.35,748.28,141,751.5,140.4Z"/><path d="M580.65,143.52l.28.24a19.56,19.56,0,0,0,2.62,1.92c-.78,9-1.5,18-3,26.87-.44,2.06-.79,4.61-2.72,5.66a7.94,7.94,0,0,1-8.06-.88c-2.24-1.58-2.6-4.84-4.61-6.64-2.35-1.74-5.59-1.17-7.8-3.22a9.94,9.94,0,0,1-3.15-7.78c.28-2.67,2.72-3.89,4.61-5.09,7.07-4.14,14.46-7.61,21.83-11.08m-2.42,3.08c-2.47,1.35.84,5.74,2.3,3C582,148,580,145.43,578.23,146.6Z"/><path d="M586.81,143.68l.32-.24c7.57,3.73,15.27,7.17,22.55,11.58,1.68,1.07,3.72,2.34,3.93,4.71a10,10,0,0,1-3.17,7.74c-2.28,2.22-5.93,1.09-8,3.55-1.68,2.09-2.4,5.1-4.71,6.56a8,8,0,0,1-7.74.62c-1.79-1-2.21-3.28-2.6-5.2-1.59-9-2.29-18.23-3.1-27.37l2.56-1.95m-.58,4.36c-.29,1.07.53,1.83,1,2.61l1.41,0c.49-.78,1.26-1.56,1-2.61C589.65,146,586.37,146,586.23,148Z"/><path d="M578.23,146.6c1.77-1.17,3.76,1.37,2.3,3C579.07,152.34,575.76,148,578.23,146.6Z"/><path d="M586.23,148c.14-2,3.42-2.08,3.44,0,.26,1.05-.51,1.83-1,2.61l-1.41,0C586.76,149.87,585.94,149.11,586.23,148Z"/><path d="M92.68,175.16c3.61-2.76,8.26-4.56,12.67-3.35,3.55.88,6.45,3.88,10.16,4.08,4.12.23,7.45-2.89,11.3-3.94,4.15-1.36,8.61.08,12.2,2.48,3.23,2.11,6,6,5.29,10.35-.66,3.36-2.16,6.44-3.45,9.55-6.41,14.16-13.85,27.73-21.22,41.32a6,6,0,0,0-5.65,0l-1.31,0c-.3-1.72-1.34-3.11-2.1-4.59-5.3-9.71-10.48-19.51-15.35-29.47-2.4-5.11-4.93-10.18-6.59-15.64-1.29-4.14,1-8.46,4.05-10.82M113,226.24c.36,1.85,1.28,3.74,3.09,4.26a3.69,3.69,0,0,0,4-3.65c.21-2.27-2-4.36-4.07-3.83C114.45,223.12,113.75,225,113,226.24Z"/><path d="M344,180.3c2.14-1.58,4.86-1.09,7.31-1.18a33.86,33.86,0,0,1,10.86,1.74c-3.69,1.78-6.2,5.34-9.12,8.22-1.35,1.42-2.72,2.83-4.05,4.26a50.18,50.18,0,0,1-8.73-1c1.84-4,5.39-6.55,8.55-9.22-4.42-.22-7,4.22-10.42,6.41C339.51,186.08,341,182.37,344,180.3Z"/><path d="M65,197.1c2.79-2.46,6.89-3.85,10.25-1.9,3.5,2.34,6.33,5.66,9.29,8.72,9.64,10.57,18.69,21.76,27.69,33a9.37,9.37,0,0,0-1.66,6.29c-13.35,3.28-26.72,6.57-40.24,8.95-4.06.59-8.15,1.45-12.25,1.11-3.91-.48-6.53-4.43-7.43-8.3C49.6,240.34,49.6,235,52.26,231c2-3.25,5.5-5.36,6.52-9.29s-.28-7.85-.14-11.78c-.11-5.13,2.83-9.73,6.38-12.84m34.09,40.26c.48,2,1.93,4.14,4.09,3.78s3.45-3,3-5.27c-1.12-1.34-2.77-3-4.55-2C100.2,234.43,99.6,236,99.11,237.36Z"/><path d="M157,195.45c3.36-2.3,7.73-.91,10.62,1.65,3.53,3.12,6.54,7.69,6.35,12.84.06,3.82-1.55,7.72-.2,11.46,1.76,4.9,6.54,7.62,8.11,12.67a20.71,20.71,0,0,1-.95,13.82c-1.36,3.07-4.2,5.52-7.43,5.45a79.2,79.2,0,0,1-12.82-1.49c-12.81-2.37-25.5-5.4-38.15-8.57a9.17,9.17,0,0,0-1.84-6.68c8.86-11.17,17.85-22.23,27.41-32.7,2.83-3,5.58-6.11,8.9-8.45m-28.42,37a3.88,3.88,0,0,0-2,5.76,3.23,3.23,0,0,0,5.75-.26C134.23,235.43,131.29,231.63,128.61,232.48Z"/><path d="M331.46,202.84c2.36-.35,4.75-.87,7.14-.44-4.45,3.18-10.64,4.46-13.13,10.13,4.36-2.44,8.46-5.87,13.45-6.64-.9,4.72-2.52,9.92-6.41,12.68-4.19,2.46-9.2,2.7-13.24,5.52a16.36,16.36,0,0,0-3.39,3.91c1-5.26,3-10.2,4.85-15.14S326.45,203.48,331.46,202.84Z"/><path d="M557.75,209.08a12.51,12.51,0,0,1,9.92,5.06c4.78,6.49,7.94,14.21,10.34,22.06,3,10.9,5.5,22,9.13,32.68a78.76,78.76,0,0,0,12.49,23.27,139.69,139.69,0,0,0,20.9,21.06,179.79,179.79,0,0,0,22.28,16c3.42,1.89,6.76,4,10.49,5.16-1.34-2.58-3.18-4.79-4.62-7.29a64.44,64.44,0,0,1-9.18-33.67,44.91,44.91,0,0,1,4.94-20.62,43,43,0,0,1,17.72-18.07A26.45,26.45,0,0,1,677,251.68c3.22.17,5.68,3.12,6.79,6.19.89,2-.41,4.3-1.95,5.4-4.39,3-9.68,3.16-14.65,3.82a26.53,26.53,0,0,0-17.67,9.52c-2.63,3.26-4,7.43-5,11.58-1.42,7.13-2.12,14.67-.28,21.77,1.07-2.34,1-5,1.69-7.52a21.37,21.37,0,0,1,11.44-13.73,28.33,28.33,0,0,1,15.67-2.38,11,11,0,0,1,8.41,5.57c.73,1.35,1.15,3.16.26,4.55a6,6,0,0,1-5.39,2c-5.24-.73-10.32-2.67-15.63-2.89-7.25-.05-13.44,7.1-13.6,14.87-.24,9.09,4.7,17.12,10,23.65,3.13,3.48,6.31,7,10.14,9.59-1.3-2.62-3.62-4.34-5.17-6.75a18,18,0,0,1-3.19-13.15c.9-4.48,3.85-8.6,7.9-10.14a8.84,8.84,0,0,1,8.15,1.19c1.08.92,2.38,2.12,2.21,3.79,0,1.37-.7,3.07-2.12,3.2-3.19.46-6.4-1.69-9.54-.39-3.17,1.6-3.91,6-3.36,9.39,1.17,6.78,6.49,11.25,11.15,15.31-4.93,1.71-8.89-2.84-13.5-3.75-13.91-7.9-28.3-15.25-40.65-25.95-12.82-11.5-24.42-24.54-37.42-35.81A20.71,20.71,0,0,0,570,276.45c-5.2.13-10.75,2.6-13.4,7.71a13.09,13.09,0,0,0,.71,13.16c1.13,1.65,3.05,3.25,5,2.37-.14-2.36-1-5,.38-7.14a5.21,5.21,0,0,1,6.15-1.93c2.06.75,4.41,2.49,4.2,5.16a7.44,7.44,0,0,1-2,4.73c-1.89,2.33-4.63,4-7.54,3.86-3.73.23-7.14-2.45-8.88-5.89a18.93,18.93,0,0,1-.38-15.12c1.8-4.22,5.65-6.86,9.6-8.23a18.29,18.29,0,0,1,15.34.63c3.93,1.8,7.11,5,10.75,7.32-1.75-4.17-4-8.07-5.56-12.33-4.26-10.31-5.77-21.56-8.3-32.43a60.87,60.87,0,0,0-11-23.66c-1.93-2.55-4.91-4.27-8-3.82-4,.11-6,6.75-2.94,9.42,1.44-.87,3-3.31,4.76-1.84,1.69,2.93-.84,7.06-3.73,7.59-2.19-.13-4-2.14-4.62-4.35-1-3.34-.82-7.48,1.55-10.11A7.51,7.51,0,0,1,557.75,209.08Z"/><path d="M431.34,211.74c5.12,1.07,10,3.13,15,4.74s9.83,3.61,14.09,6.8a18,18,0,0,1,6.8,10.07,56.33,56.33,0,0,1,1.41,20.53c-2-5.24-3.12-10.85-5.74-15.78-2.26-4.25-5.33-8.38-9.67-10.18,1.86,2.78,4.16,5.24,5.36,8.48,2.33,5.81,4.66,11.76,5.55,18.07a32.71,32.71,0,0,1-13.5-5.37,16.46,16.46,0,0,1-6.33-8.87c-2.54-6.84-2.55-14.58-5.85-21.1C436.89,215.86,433.92,214,431.34,211.74Z"/><path d="M504.61,223.21a7.82,7.82,0,0,1,6.81-3.91c2.31.08,4.11,2.22,6.44,2.17,2.62-.29,4.83-2.68,7.58-2.1s5.8,2.46,6.07,5.73c-.53,3.62-2.48,6.76-3.91,10-2.59,5.28-5.35,10.46-8.18,15.59a7.13,7.13,0,0,0-3.15,0c-4.22-7.82-8.6-15.59-11.85-24a6.75,6.75,0,0,1,.19-3.54m12.87,21.42a1.87,1.87,0,0,0-.56,3.13c1.22,1.35,3.3-.58,2.64-2.2A1.93,1.93,0,0,0,517.48,244.63Z"/><path d="M348.76,226.41a25.86,25.86,0,0,1,7.94-6.6c-.86,3.22-3.23,5.57-4.5,8.58a9.45,9.45,0,0,0-1.18,7.39c2.12-4.35,4.06-8.9,7.17-12.54a7.34,7.34,0,0,1,1.51-1.09c1.75,4,3.25,8.7,2,13.08-1.85,4.5-5.57,7.63-8.28,11.46-1.6,2.17-1.81,5-2.32,7.61a114.68,114.68,0,0,1-4.4-14.63C345.62,235.25,345.8,230,348.76,226.41Z"/><path d="M200.33,221a120.61,120.61,0,0,1,16.16,10.62c3.71,2.91,7.07,7,7.72,12.1.59,4.53,1,9.35-.38,13.76-1.78-7.27-3.13-15.71-9.06-20.48.8,2.12,2.14,4,2.78,6.18a73.61,73.61,0,0,1,3.1,14.19,24.67,24.67,0,0,1-11.27-8.69c-4.52-6.64-2.51-15.63-5.86-22.77C202.58,224.15,201.27,222.69,200.33,221Z"/><path d="M113,226.24c.71-1.28,1.41-3.12,3-3.22,2-.53,4.28,1.56,4.07,3.83a3.69,3.69,0,0,1-4,3.65C114.32,230,113.4,228.09,113,226.24Z"/><path d="M490.67,234.71c1.35-2.53,4.06-5.13,6.93-3.93,2.53,1.6,4.45,4.09,6.51,6.31,4,4.63,7.94,9.27,11.59,14.2a16.46,16.46,0,0,0-.82,3.1,241.66,241.66,0,0,1-23.72,5.18l-1.7-.14c-2-.45-3.29-2.64-3.64-4.71s-.33-4.77,1.11-6.55c1.22-1.73,3.22-3.18,3.16-5.61,0-2.61-.85-5.48.58-7.85m19.83,15.18c-2.05,1-.45,4.54,1.42,3.33C513.9,252.35,512.45,248.91,510.5,249.89Z"/><path d="M535.34,233c1.28-1.2,2.68-2.79,4.54-2.53,2.63.36,4.66,2.81,5.64,5.36s-.57,5.31.22,7.89c1,2.59,3.68,4.16,4.16,7.07.42,2.76,0,6.1-2.19,7.89-1.69,1.18-3.81.58-5.67.4A212.54,212.54,0,0,1,521,254.42c-.08-.33-.23-1-.3-1.32-.18-.75-.36-1.5-.52-2.24,5-6,9.75-12.29,15.19-17.84M523.43,249.3a1.87,1.87,0,1,0,2.28,1.1A1.7,1.7,0,0,0,523.43,249.3Z"/><path d="M128.61,232.48c2.68-.85,5.62,3,3.77,5.5a3.23,3.23,0,0,1-5.75.26A3.88,3.88,0,0,1,128.61,232.48Z"/><path d="M99.11,237.36c.49-1.4,1.09-2.93,2.5-3.48,1.78-1,3.43.65,4.55,2,.49,2.3-.66,5-3,5.27S99.59,239.37,99.11,237.36Z"/><path d="M114,235.7a6,6,0,0,1,5.65,0,4.08,4.08,0,0,1,1.09.95,9.17,9.17,0,0,1,1.84,6.68c-.32.56-.69,1.08-1,1.6A6.8,6.8,0,0,1,117,248l-.56.18-.71-.29a9.08,9.08,0,0,1-4.62-3.54l-.51-.6c0-.15,0-.45,0-.61a9.37,9.37,0,0,1,1.66-6.29l.15-.25C112.93,236.35,113.46,236,114,235.7Z"/><path d="M111.09,244.39a9.08,9.08,0,0,0,4.62,3.54c-1.13,14.41-2.42,28.82-4.38,43.13a105.93,105.93,0,0,1-2.62,13.64,8.58,8.58,0,0,1-6.79,6,16.16,16.16,0,0,1-13-3.55c-3.3-2.9-4.06-7.82-7-11-3.28-3.26-8.05-2.81-12-4.56s-6.74-5.59-8.3-9.75c-1.34-3.54-1.6-8,.75-11.11,2.22-2.58,5.25-4.11,8-5.88,13.19-7.61,27-14,40.64-20.45m-3.83,5.15c-2.3.59-3.68,4-1.93,6a3.26,3.26,0,0,0,5.62-.32C112.72,252.61,110,248.73,107.26,249.54Z"/><path d="M517.48,244.63a1.93,1.93,0,0,1,2.08.93c.66,1.62-1.42,3.55-2.64,2.2A1.87,1.87,0,0,1,517.48,244.63Z"/><path d="M121.51,244.88l.5,0c3.33,1,6.37,2.91,9.6,4.26,10.8,5.22,21.66,10.39,32,16.58,2.79,1.91,6.18,3.47,7.68,6.89.22.72.43,1.47.61,2.22A18.53,18.53,0,0,1,165.5,290c-3.92,3.35-9.44,2-13.5,5l-.75.81c-3.07,3.34-4.09,8.36-7.54,11.38a16.05,16.05,0,0,1-12.93,3.55,8.56,8.56,0,0,1-6.81-6,110.07,110.07,0,0,1-2.75-14.57c-1.88-14-3.16-28-4.24-42.09a6.8,6.8,0,0,0,4.53-3.16m1.82,5.16a3.89,3.89,0,0,0-2.26,3.69,3.75,3.75,0,0,0,3,3.73,3.65,3.65,0,0,0,3.64-4.26A3.34,3.34,0,0,0,123.33,250Z"/><path d="M107.26,249.54c2.77-.81,5.46,3.07,3.69,5.66a3.26,3.26,0,0,1-5.62.32C103.58,253.55,105,250.13,107.26,249.54Z"/><path d="M523.43,249.3a1.7,1.7,0,0,1,2.28,1.1,1.87,1.87,0,1,1-2.28-1.1Z"/><path d="M123.33,250a3.34,3.34,0,0,1,4.42,3.16,3.65,3.65,0,0,1-3.64,4.26,3.75,3.75,0,0,1-3-3.73A3.89,3.89,0,0,1,123.33,250Z"/><path d="M510.5,249.89c2-1,3.4,2.46,1.42,3.33C510.05,254.43,508.45,250.88,510.5,249.89Z"/><path d="M516.27,250.71a7.13,7.13,0,0,1,3.15,0l.73.15c.16.74.34,1.49.52,2.24a7.05,7.05,0,0,1,0,2.15,21.18,21.18,0,0,1-2.35,1.6l-.88,0a15.27,15.27,0,0,1-2-1.68l-.54-.81a16.46,16.46,0,0,1,.82-3.1Z"/><path d="M501.46,261.78c4.62-2.25,9.13-4.85,14-6.58a15.27,15.27,0,0,0,2,1.68c-.18,5.8-.94,11.55-1.53,17.31a84.52,84.52,0,0,1-1.6,9.93,4.22,4.22,0,0,1-2.71,3.16,7.14,7.14,0,0,1-8.66-3.94c-.44-.82-.86-1.64-1.3-2.44-1.22-1.8-3.47-1.88-5.27-2.48-3.41-.75-5.7-4.69-5.5-8.32.15-2.35,2.24-3.56,3.9-4.62,2.22-1.27,4.45-2.54,6.73-3.7m12.22-4.27c-2.26.15-1.86,4.06.34,3.65C516.08,260.94,515.72,257.34,513.68,257.51Z"/><path d="M518.28,256.85a21.18,21.18,0,0,0,2.35-1.6c5.46,2.29,10.75,5.07,16,7.82,2.53,1.46,5.27,2.68,7.37,4.84,1.81,2.57.48,6.14-1.24,8.35s-4.52,2.15-6.81,3c-2.76,1.5-3,5.64-5.77,7.15-2.44,1.39-6,1.88-8-.58-1.29-2.27-1.38-5.05-1.85-7.6-.92-7.11-1.74-14.25-2.06-21.42m2.44,1.25c-1.54,1.11.09,4.4,1.8,3C524.59,260.12,522.45,256.34,520.72,258.1Z"/><path d="M1094.62,256.48c3.34-.67,7.14-.65,10,1.62,2.65,2,4.42,5.48,7.75,6.32,3.8.84,7.71-1,11.49.27a14.89,14.89,0,0,1,8.05,7.69,8.2,8.2,0,0,1-.38,8,68.57,68.57,0,0,1-6.93,8.23c-7.89,8.36-16.28,16.13-24.59,24a11.77,11.77,0,0,0-5.31-1.92c-2.43-12.87-5-25.73-6.65-38.77a40.87,40.87,0,0,1-.37-8.77c.57-3.64,3.83-5.89,6.94-6.59m2.34,47c-1.07,1.85.82,3.36,1.94,4.47,1.45-.18,3.57-.79,3.63-2.77.31-1.35-.68-2.35-1.29-3.37C1099.65,301.66,1097.68,301.57,1097,303.47Z"/><path d="M513.68,257.51c2-.17,2.4,3.43.34,3.65C511.82,261.57,511.42,257.66,513.68,257.51Z"/><path d="M520.72,258.1c1.73-1.76,3.87,2,1.8,3C520.81,262.5,519.18,259.21,520.72,258.1Z"/><path d="M1060.09,270.36c3-3.31,7.41-5.7,11.73-4.61,2.66.71,4.07,3.48,5.37,5.86,6.43,12.67,11.22,26.19,16.57,39.41a15,15,0,0,0-2.88,4.44c-.2.08-.59.23-.78.32-12.66-1.46-25.35-2.79-37.85-5.49-2.81-.76-6.2-1.18-7.9-4.08-2.33-4-1.49-9.32.41-13.35,1.48-3.29,4.68-4.83,7.51-6.42a9.12,9.12,0,0,0,4.33-6.42c.72-3.36,1.15-7.09,3.49-9.66m23.15,39.47a17.93,17.93,0,0,0,1.36,2.14,4.18,4.18,0,0,0,4.49-1.87c-.12-1.37-.36-2.94-1.59-3.65C1085.54,304.85,1082.66,307.4,1083.24,309.83Z"/><path d="M342.07,268.56c3.08-.22,6,.89,9.05,1.3,4.63,1,9.35,1.88,13.84,3.56A14.84,14.84,0,0,1,374,284c1,4.43,1.94,9.06,1.37,13.62-2.52-4-3.79-8.8-6.69-12.53-1.77-2.23-3.73-4.79-6.61-5.1,1.68,2.65,3.79,5,5.17,7.84a65.63,65.63,0,0,1,4.62,10.79c-4.94,1.1-10-.7-14.26-3.27-2.24-1.36-3.16-4.17-4.05-6.62-1.85-5.26-3.28-10.81-6.3-15.46C345.88,271.26,343.69,270.27,342.07,268.56Z"/><path d="M275.37,277.36c3.44-4.4,9-6.2,14.2-5.87,4.23.24,8.73.71,12.36,3.33a4.17,4.17,0,0,1,.93,5.65,2.16,2.16,0,0,1-2.57.8c-2.83-.94-4.63-3.66-6.4-6-4.05-.46-8.41-.71-12.05,1.6-4.8,2.57-7.37,8.63-7,14.29a24.3,24.3,0,0,0,6.29,14.81l-1.31.11a36,36,0,0,0-5.58-6.28c.26-1.84-.76-3.45-1.19-5.15C271.34,288.91,271.78,282.1,275.37,277.36Z"/><path d="M608.31,279.79a41.13,41.13,0,0,1,16.45,1.58c-3.7,1.12-5.93,4.74-8.69,7.36-1.72,1.58-3.06,3.65-4.94,5-2.88.25-5.73-.43-8.56-.87,1.65-4.14,5.4-6.39,8.38-9.23-4.35-.11-7,4.16-10.31,6.47C601.86,285.85,604.06,281.06,608.31,279.79Z"/><path d="M481.42,318A64.64,64.64,0,0,1,501.6,280.9c.44.8.86,1.62,1.3,2.44a67.25,67.25,0,0,0-12,15.22,52.71,52.71,0,0,0-5.72,19.83l-.66-.11A19.94,19.94,0,0,0,481.42,318Z"/><path d="M1130.94,295.43c3.06-1.51,6.09-3.35,9.45-3.95,3.44-.27,6.27,2.61,7.78,5.71,1.6,3.26,2.47,7.24,1.27,10.82-.9,3-3,5.55-3,8.81,0,3.42,2,6.28,2.83,9.49,1.26,4.31-.22,9-2.63,12.53-1.83,2.71-5.15,4.61-8.24,3.41a73.91,73.91,0,0,1-10.93-5.56c-8.41-4.92-16.58-10.3-24.75-15.67-.93-.65-2.47-1-2.22-2.53a11.68,11.68,0,0,0,.13-4.82l.56-.45c9.76-6.21,19.6-12.33,29.74-17.79m-26.23,19.28c-.57,1.67.45,3.08,1.47,4.19,1.34.05,2.91.05,3.69-1.41,1.36-1.63,0-4.06-1.56-4.81C1106.85,312.14,1105.37,313.4,1104.71,314.71Z"/><path d="M440.66,295c4.06-.16,8.37-.43,12.16,1.47,4.34,3.46,5.61,9.67,9.48,13.61,1.37,1.44,3.62,1.64,4.6,3.59-5.23.17-10.46.13-15.68.09a10.17,10.17,0,0,1-7-2.64c-2.64-2.41-4.18-5.88-5.45-9.28a8.89,8.89,0,0,1-.42-3.12c3.88,3.25,6.64,8.22,11.49,9.95a6.71,6.71,0,0,0-2-3.25,47.06,47.06,0,0,1-6.49-8.06A4.71,4.71,0,0,1,440.66,295Z"/><path d="M317,299c2.65-.56,5.3-1.2,8-1.52a4.13,4.13,0,0,1,4.52,3.59c-2.31,2.92-6.08.86-8.78-.21a17.72,17.72,0,0,0-7.32,2.7c-2.59,1.68-4.81,4.59-4.78,8,.1,4,2.93,7.28,6.14,8.83,2.27,1.24,4.86,1.24,7.29,1.87-3.94,2.81-8.56.26-12.29-1.67-.31-1.28-1.4-2-2.09-3a10.57,10.57,0,0,1-1.08-10.93C308.69,302.45,312.9,300.16,317,299Z"/><path d="M1097,303.47c.72-1.9,2.69-1.81,4.28-1.67.61,1,1.6,2,1.29,3.37-.06,2-2.18,2.59-3.63,2.77C1097.78,306.83,1095.89,305.32,1097,303.47Z"/><path d="M593.63,303.31c2.33-.34,4.71-.84,7.07-.34-2.72,2.08-6,3-8.73,5.07-1.68,1.31-3.71,2.71-4.16,5.06,4.17-2.76,8.37-5.79,13.26-6.79-.57,4.24-2.09,8.56-4.92,11.61-4.06,3.55-9.67,3.41-14.07,6.24-1.75.94-2.81,2.77-4,4.36.93-5.1,3-9.84,4.67-14.67C584.46,308.71,588.48,304.05,593.63,303.31Z"/><path d="M1083.24,309.83c-.58-2.43,2.3-5,4.26-3.38,1.23.71,1.47,2.28,1.59,3.65a4.18,4.18,0,0,1-4.49,1.87A17.93,17.93,0,0,1,1083.24,309.83Z"/><path d="M1093.76,311l.4-.49.54.08a11.77,11.77,0,0,1,5.31,1.92c.29.18.89.52,1.19.69l-.56.45a11.68,11.68,0,0,1-.13,4.82c-.33.6-.64,1.2-.91,1.82a8.43,8.43,0,0,1-4.89,1.47,16.86,16.86,0,0,0-.39,1.74c-.19-.42-.56-1.26-.75-1.67l-.08-.68a11.42,11.42,0,0,1-2.57-4.06c-.58-.21-1.14-.43-1.66-.64l.84-.69c.19-.09.58-.24.78-.32A15,15,0,0,1,1093.76,311Z"/><path d="M693.46,312.17a68.62,68.62,0,0,1,9.22,2.75c6.69,2.33,13.65,4.29,19.59,8.53a18,18,0,0,1,7.19,10.39,54.38,54.38,0,0,1,1.39,20.56c-2.15-6.24-3.59-12.92-7.21-18.43-2-3.25-4.78-6.19-8.23-7.59,1.61,2.4,3.68,4.43,4.85,7.16A123.91,123.91,0,0,1,725.15,349a16.83,16.83,0,0,1,1,5.75c-.65.57-1.53-.18-2.23-.21a31,31,0,0,1-13.21-6.76c-2.7-2.49-3.92-6.21-5-9.75-1.62-5.73-2.05-11.86-4.45-17.32C699.63,316.91,696.46,314.49,693.46,312.17Z"/><path d="M1104.71,314.71c.66-1.31,2.14-2.57,3.6-2,1.58.75,2.92,3.18,1.56,4.81-.78,1.46-2.35,1.46-3.69,1.41C1105.16,317.79,1104.14,316.38,1104.71,314.71Z"/><path d="M1064.13,319.75c8.91-1.06,17.83-2.11,26.79-2.64a11.42,11.42,0,0,0,2.57,4.06l.08.68c-1.38,3.56-2.94,7-4.27,10.62-4.19,9.45-8,19.12-12.9,28.15-1.41,2.47-2.89,5.43-5.73,6.06-4.67,1-9.38-1.93-12.22-5.79-2.39-3.36-1.57-7.95-3.33-11.57-2.25-4.1-7.17-4.86-9.78-8.59a16.72,16.72,0,0,1-2.59-11.14c.29-3,2.07-5.88,4.81-6.72,5.39-1.74,11-2.28,16.57-3.12m20.79.73c-2,1.13-1.64,4.23,0,5.55l3-.07c.46-.85,1.27-1.61,1.25-2.69C1089.42,321,1086.65,319,1084.92,320.48Z"/><path d="M471,323.1c2.49-3.4,6.59-4.86,10.45-5.12a19.94,19.94,0,0,1,3.06.3c3.44,1,5.84,4.18,9.16,5.43,3.69,1.17,7.19-1.15,10.79-1.65,4.07-.78,8.1,1.36,11.06,4.25,2.27,2.19,3.88,5.58,3.12,8.92-.82,2.9-2.52,5.36-4,7.89-7.27,11.62-15.54,22.42-23.56,33.42-1.92-.76-3.94-1.27-5.92-.54-3.95-10.5-7.86-21-11.37-31.68a127.11,127.11,0,0,1-4-14.29A8.72,8.72,0,0,1,471,323.1m17.36,42.23a3.36,3.36,0,0,0-1.19,5.29c1.51,2,5.1.88,5.22-1.78C492.75,366.6,490.23,364.34,488.33,365.33Z"/><path d="M214.56,322.41c2.39-1,4.61-2.79,7.3-2.6-3,3.55-7,6.2-9,10.59a7.48,7.48,0,0,0-.56,3.33,61.25,61.25,0,0,1,5.06-6c2-1.85,3.84-4.15,6.43-5.11.82,4.12,1.16,8.77-.64,12.63-3.26,5.3-9.49,7-13.13,11.91a43.54,43.54,0,0,0-1.78,4.79c-1-4.44-.52-9-1-13.51-.16-3.85.07-8,2.11-11.3A11.26,11.26,0,0,1,214.56,322.41Z"/><path d="M608.77,331.46c1.26-5.66,6.08-9.15,10.56-11.64-1.3,4.39-4.91,7.51-6.05,12a12.66,12.66,0,0,0-.18,4.47c2.59-4.37,4.38-9.38,7.8-13.13.36-.57,1.21-.29,1.43.32a26.47,26.47,0,0,1,2.09,8.37c.26,3.53-1.62,6.69-3.78,9.13-1.89,2.64-4.46,4.72-5.85,7.76a17.88,17.88,0,0,0-1.21,5.64c-1.88-2.55-2.39-5.87-3.27-8.91C609.17,340.93,607.38,336.17,608.77,331.46Z"/><path d="M1084.92,320.48c1.73-1.47,4.5.5,4.21,2.79,0,1.08-.79,1.84-1.25,2.69l-3,.07C1083.28,324.71,1082.91,321.61,1084.92,320.48Z"/><path d="M1094.71,321.78a8.43,8.43,0,0,0,4.89-1.47c8.22,8,16.39,16,24.16,24.52a68.9,68.9,0,0,1,7.21,9c1.81,3.07.74,7.1-1.26,9.74-2.47,3.32-6.2,6.08-10.29,5.7-2.81-.06-5.69-1.39-8.43-.27-3.94,1.65-6.15,6.29-10.35,7.45a13,13,0,0,1-11.52-2.19,7.46,7.46,0,0,1-2.66-6.11c.17-6.2,1.5-12.26,2.44-18.35,1.66-8.81,3.6-17.55,5.42-26.32a16.86,16.86,0,0,1,.39-1.74m1.85,4.56c0,1.37-.48,3.11.64,4.14.79,1,2.13.61,3.24.72.56-.85,1.63-1.52,1.6-2.7.18-1.57-1-3.33-2.49-3.32C1098.39,324.93,1097.45,325.73,1096.56,326.34Z"/><path d="M993.21,323.9c5.26-2.77,12.08-3.08,17,.76,2.92,2.26,5.24,6,4.79,10.07-.42,5.61-6.74,9.47-11.34,6.92-2.94-1.59-2.83-6.17-.93-8.61,1-1.5,3.09-2.33,4.52-1.09A4.13,4.13,0,0,1,1007,337c-1.1.47-1.9-.62-2.69-1.19a2.46,2.46,0,0,0-1.7,2,4.18,4.18,0,0,0,4.06,3.32c4.34.25,8-5.17,6.25-9.58-1.45-4.73-6.31-6.9-10.59-6.85-6.08-.46-11.36,3.55-15.75,7.64-3.92,4-7.78,8.25-10.49,13.36,5.18-1.61,10.64-3,16-1.88a17.59,17.59,0,0,1,12.78,8.61c2.91,4.86,3,11,2.43,16.52a22.17,22.17,0,0,1-7.44,14.09c-3.26,2.66-7.64,3-11.49,2a12.9,12.9,0,0,1-9-11c-.53-6,4.08-11.74,9.56-12a5.3,5.3,0,0,1,5.2,3.28c1.58,3.7-1.6,8.55-5.36,8,.56-2.36,3.3-3.74,2.89-6.36a4.23,4.23,0,0,0-7.1,0c-2,3-1.36,7.19.33,10.17,2.4,4.08,7.8,6,11.82,3.64,3.47-1.82,5.74-5.51,6.9-9.41a23.54,23.54,0,0,0-1-16.32c-2-4.53-6.79-6.31-11-7a31.68,31.68,0,0,0-28.05,12.35c-2.12,2.73-3.24,6.17-4.27,9.5-1.73,5.52-1.26,11.45-2.35,17.1a47.91,47.91,0,0,1-12.09,23.55c-.9-1-1.78-2.09-2.66-3.14A39.77,39.77,0,0,0,952,392.92c2.2-5.78,2.18-12.13,2.22-18.28.61-10.25-2.55-21.25-10-27.92-3.57-3.27-8.36-4.4-12.91-4.54-2-.1-3.92.22-5.85-.13s-2.47-2.68-2.33-4.41c.27-2.19,2.55-2.72,4.22-3,3.93-.29,7.81,1.13,11.31,3,5.16,2.92,8.78,8,12.1,13.07,2.5,4,3.78,8.64,5.52,13,1.19-2.38,2.19-4.93,4-6.86,4.5-5,9.18-9.86,13.75-14.81C980,335.55,985.6,328.28,993.21,323.9Z"/><path d="M1089.3,332.47c1.33-3.59,2.89-7.06,4.27-10.62.19.41.56,1.25.75,1.67-1.82,8.77-3.76,17.51-5.42,26.32-1.56,1.86-2.45,4.2-3.61,6.33-4.55,8.64-10.37,16.35-15.73,24.37-2.6,3.84-5.76,7.28-7.79,11.53,2.74-.55,5.44-1.43,8.23-1.73,6.41-.56,12.73,1.8,18.09,5.52a22.74,22.74,0,0,0,12.51,4.34c2.17.07,4.6-.1,6.33-1.73,1.44-1.44,1.67-3.79,1.24-5.77-.56-3.41-2.73-6.17-3.53-9.49-.34-1.2,0-3,1.41-3.09,3.91-.26,7.9,2.46,9.47,6.38a7.08,7.08,0,0,1,.07,5.53c-1.48,3.71-3.5,7.36-6.61,9.7-3.55,2.56-8,2-12,1.76-5.42-1.23-9.71-5.38-14.77-7.59-5-2.48-10.81-2.15-16-.45-8,2.45-15,7.59-22.57,11.23a253.84,253.84,0,0,1-33.77,13c-10.74,3.37-21.85,4.92-32.77,7.41-3.25.73-6.5,1.43-9.73,2.21-1.76.45-3.71.49-5.18,1.75-1.58-1.79-3-3.71-4.57-5.5,17.94-2.88,35.83-6.59,53.16-12.53a87.22,87.22,0,0,0,14.33-6c7.31-3.59,12.38-11.07,15.41-18.93a41.7,41.7,0,0,0,1.7-23.44c-1.1-4.45-4-8.51-7.94-10.26-3-1.44-6.27-1.61-9.46-1.69,3.89-1.68,8.55-2.5,12.39-.2,4.93,2.86,7.54,8.8,8.45,14.58,1.61,10.74-.62,21.88-5.21,31.46a15.63,15.63,0,0,0-1.64,4.7c4.08-1.89,7.46-5.09,11.08-7.81,4.5-4,9.34-7.81,12.83-13,7.46-11.36,16.79-21.43,22.17-34.28C1086.83,343.12,1088.84,338,1089.3,332.47Z"/><path d="M1096.56,326.34c.89-.61,1.83-1.41,3-1.16,1.5,0,2.67,1.75,2.49,3.32,0,1.18-1,1.85-1.6,2.7-1.11-.11-2.45.31-3.24-.72C1096.08,329.45,1096.6,327.71,1096.56,326.34Z"/><path d="M262.13,333.32c4.64,2.27,9.71,4.87,12.28,10,1.19,2.16,1.08,4.78.93,7.21a68.92,68.92,0,0,1-4.89,20.12c-.3-1.78-.35-3.72-1.42-5.2-4.21-5.83-9.09-11.09-13.13-17a59.2,59.2,0,0,1,2.55-12.45c5.09,3.17,8.57,8.62,11.08,14.26.83-3.08-.31-6.36-1.95-8.88C265.89,338.53,263.7,336.17,262.13,333.32Z"/><path d="M441.92,341.14c2.61-4.25,7.1-8,12.05-7.3,2.95.43,4.77,3.29,6.59,5.55,8.64,11.86,16.11,24.66,23.61,37.38a8.54,8.54,0,0,0-2.11,5.3c-13.65,1.05-27.32,2.32-41,2.09-2.64-.22-5.51,0-7.86-1.49-2.64-1.82-3.79-5.35-3.91-8.6-.2-3.91.55-8.19,3.23-11,2.15-2.51,5.46-3.91,6.77-7.21,1.75-4.7,0-10.29,2.65-14.7m32.61,31.51c-.75.9-1.81,1.79-1.58,3.17-.26,1.43.91,2.29,1.64,3.25,1.31,0,2.92.25,3.73-1.2,1.38-1.7.27-4-1-5.26Z"/><path d="M646.92,350.19c2.27-5.2,7.89-7.56,12.9-7.82,4.61.91,8.57,5.46,13.5,3.75,3.49-1.24,6.72-3.8,10.55-3.56a14.8,14.8,0,0,1,10.2,5.2,8.57,8.57,0,0,1,1.52,8.22c-.22.64-.44,1.29-.65,1.93-4.79,11.9-11,23.06-17,34.28-1.51,2.44-2.37,5.52-4.73,7.21a5.62,5.62,0,0,0-4.74.28c-6.93-12.74-14-25.43-19.86-38.8-1.29-3.31-3.35-7.08-1.72-10.69m23,38.57a3.63,3.63,0,0,0-.71,5.25c1.62,1.67,5.06.88,5.13-1.86C674.88,389.6,672,387.32,670,388.76Z"/><path d="M528.63,346.74c3.16-1.36,6.65.47,8.82,3,2.72,3.17,4.8,7.57,4.08,12-.41,3.49-2.4,6.81-1.5,10.4,1.07,4.35,4.72,7.35,5.51,11.84.66,4.71-.45,9.9-3.49,13.44a6.91,6.91,0,0,1-7.08,2.2c-6.45-1.43-12.67-3.88-18.88-6.19S504,388.68,498,386.16c-1.81-.72-3.55-1.72-5.47-2,0-.36,0-1.08,0-1.44a6.49,6.49,0,0,0-.85-5.08c9.22-8.47,18.41-17,28.1-24.83,2.85-2.18,5.64-4.59,8.87-6.09M496,378.16c.47,1.16.74,2.69,1.93,3.27,2.15,1.6,5.3-1.44,4.29-3.94a3.61,3.61,0,0,0-2.75-2.46C497.82,375.05,496.72,376.68,496,378.16Z"/><path d="M695.59,356c6.68,1,13.35,2,20.07,2.63,7.8.88,15.64.17,23.47.47a103.69,103.69,0,0,1,16.09,1.52c7,1,13.92,3,21,3.62,4.89.43,9.74,1.29,14.65,1.38,2.34,0,4.7.6,7,0,2.45,1.41,4.93,2.77,7.38,4.21-5.51-.18-11,.22-16.53-.1-4.78.05-9.52-1-14.29-.58,5.54,2.86,11.48,4.86,16.7,8.46a24.14,24.14,0,0,0-8.31,5.74c-4.43-4.62-9.76-8.43-15.75-10.09-11.84-3.05-24.18-1.94-36.05.25-3.14.38-5.75,2.47-8.71,3.46a13.22,13.22,0,0,0-1.21-6,18,18,0,0,1,6.19-2.49,42.13,42.13,0,0,1-8.15-.84,17,17,0,0,0-6.6-4.8c1.5-.69,3-1.34,4.57-2-3.58-.5-7.21-.48-10.79-1-3.83-.49-7.61-1.29-11.41-2C695.15,357.27,695.37,356.62,695.59,356Z"/><path d="M200.79,359.82c2-.71,3.46-2.66,5.51-3.24,2.35.07,5.1.62,6.51,2.89,1,1.94.1,4.21-.3,6.2-1.77,6.53-3.82,13-6.11,19.32-1,.23-1.87.46-2.79.71-4.81-6.08-9.92-12-14-18.69-1.83-3,1-6.12,3.39-7.38,2.43-1.82,5.16,1.05,7.76.19m2.43,20.66q0,1.14,0,2.31c1.13.57,2.59.59,2.83-1.1C205.85,380,204.33,379.92,203.22,380.48Z"/><path d="M624.57,366.3c2.15-2.25,5.11-4,8.19-3.47,2.68.53,4.64,2.78,6.61,4.65,10.09,10.28,19.1,21.71,28.26,33a9,9,0,0,0-1.7,5.55c-12.32,2.92-24.61,6-37.09,8.09-3.14.42-6.31,1-9.47.7-3.12-.5-5.34-3.5-6.19-6.63-1.21-4.28-1.28-9.37,1.28-13.1,1.75-2.76,4.7-4.61,5.67-7.93,1-3.73-.35-7.56-.08-11.36s2.13-7,4.52-9.46m33.11,31.91a3.62,3.62,0,0,0-1,4.83,3,3,0,0,0,5.42-1.52C662.5,399,659.68,396.82,657.68,398.21Z"/><path d="M705.58,365.07a7.69,7.69,0,0,1,7-2.21,17,17,0,0,1,6.6,4.8,34.23,34.23,0,0,1,2,3.33,13.22,13.22,0,0,1,1.21,6c-.1,3.25-1.33,6.59-.19,9.77s3.78,5.24,5.56,8c3,4.19,2.8,10.12,1,14.82-1,2.79-3.38,5.13-6.2,5.34a47.94,47.94,0,0,1-9.63-.88c-12.15-2-24.14-5-36.15-7.9-.11-1-.13-1.91-.31-2.85a5.59,5.59,0,0,0-1.51-2.56c3.65-5.48,8.15-10.22,12.2-15.35,5.93-7,11.77-14.1,18.46-20.23m-24.27,32a3.4,3.4,0,0,0-.86,5.11c1.51,1.93,5,.92,5.23-1.68C686.2,398,683.33,395.65,681.31,397.09Z"/><path d="M220,364.39c2.33-1.61,5.08.21,6.71,2.12,1.88,2.08,1.12,5.27,2,7.78,1.18,2.18,3.94,2.87,4.63,5.45.58,2.08.95,4.55,0,6.56s-3.2,1.89-5,2.13a146.28,146.28,0,0,1-20.08-.37c-.38-.94-.78-1.86-1.19-2.76,2.9-5.35,5.85-10.67,9-15.81a27.41,27.41,0,0,1,3.85-5.1M209.2,384.12a1.5,1.5,0,0,0,2.46,1.61c.79-.77.05-2,0-2.86C210.74,383.05,209.43,382.88,209.2,384.12Z"/><path d="M392.56,364.77a42.06,42.06,0,0,1,10.06,6.71,14.79,14.79,0,0,1,4.78,10.2c.07,6.36-1.35,12.6-2.78,18.73-.88,3-1.54,6.11-3,8.84,0-2.39-.21-4.92-1.68-6.82-4.41-6.27-9.12-12.29-13.59-18.5-1.2-1.33-.61-3.16-.34-4.74.74-3.88,1.27-7.83,2.58-11.54a36.62,36.62,0,0,1,7.93,8.74c1.83,2.62,2.93,5.68,4.4,8.53a15,15,0,0,0-2.36-10.79C396.66,370.91,394.28,368.08,392.56,364.77Z"/><path d="M488.33,365.33c1.9-1,4.42,1.27,4,3.51-.12,2.66-3.71,3.78-5.22,1.78A3.36,3.36,0,0,1,488.33,365.33Z"/><path d="M915.42,373.21c6.05-1.94,11.67-6,18.19-5.8,4,0,7.59,2.3,10.24,5.37,2.21,2.53,4.92,4.89,5.91,8.35-3.18-.91-5.71-3.34-8.68-4.75-3.39-1.61-7.27-2.82-10.93-1.61,1.43,1.32,3.4,1.43,5.1,2.18a72.26,72.26,0,0,1,12.26,7.14c.64.29.38,1.22-.16,1.47-4.38,3.33-9.81,5.47-15.19,4.55-1.91-.56-3.45-2-5.07-3.12a2.07,2.07,0,0,0-1.87-.48C921.73,382.28,918.74,377.6,915.42,373.21Z"/><path d="M178.29,377.56c.51-3,2.84-6.54,6-5.85,4.14,2,7.66,5.28,11.35,8.13,2.48,2.15,5.12,4.1,7.5,6.4-.06,1-.11,2-.15,3a187.9,187.9,0,0,1-18.72,8.2c-1.59.45-3.41,1.18-4.95.22-1.84-1.25-2.64-3.8-2.67-6.05-.15-2.5,1.81-4.2,2.47-6.42.71-2.61-1.43-5-.82-7.61M198,388.43c.54.95,1.75.37,2.62.54.12-1.2.4-3.32-1.32-3.08C197.92,385.65,197.64,387.34,198,388.43Z"/><path d="M474.53,372.65l2.76,0c1.3,1.29,2.41,3.56,1,5.26-.81,1.45-2.42,1.18-3.73,1.2-.73-1-1.9-1.82-1.64-3.25C472.72,374.44,473.78,373.55,474.53,372.65Z"/><path d="M496,378.16c.68-1.48,1.78-3.11,3.47-3.13a3.61,3.61,0,0,1,2.75,2.46c1,2.5-2.14,5.54-4.29,3.94C496.78,380.85,496.51,379.32,496,378.16Z"/><path d="M484.7,376.09l.43-.09c2-.73,4-.22,5.92.54l.61,1.12a6.49,6.49,0,0,1,.85,5.08c-.33.7-.6,1.44-.92,2.14a6.54,6.54,0,0,1-4.62,2.33l-.55.08-.55-1c-1.8.17-2.6-1.83-3.5-3.12l-.38-.6.07-.52a8.54,8.54,0,0,1,2.11-5.3Z"/><path d="M203.22,380.48c1.11-.56,2.63-.44,2.8,1.21-.24,1.69-1.7,1.67-2.83,1.1Q203.19,381.62,203.22,380.48Z"/><path d="M794.57,387.41c.82-2.26,1.7-4.49,2.71-6.66,4.9,3.49,10.18,6.31,15.17,9.65-2,1.15-4.29.62-6.16-.57a7.09,7.09,0,0,0-6.49-.58c-1.44-.78-2.87-1.58-4.28-2.38Z"/><path d="M209.2,384.12c.23-1.24,1.54-1.07,2.41-1.25.1.91.84,2.09,0,2.86A1.5,1.5,0,0,1,209.2,384.12Z"/><path d="M460.34,389.77c7.31-2.33,14.66-4.49,22-6.58.9,1.29,1.7,3.29,3.5,3.12-1.65,9.88-4.27,19.54-6.61,29.24-1.77,6.67-3.4,13.45-6.06,19.78a7.36,7.36,0,0,1-6.88,4.59,14.46,14.46,0,0,1-10.93-5c-2.68-3.17-2.53-8-5.25-11.14-3.23-3.39-8.32-3.27-11.53-6.71a17.71,17.71,0,0,1-4.37-10.87c-.2-3.27,1.28-6.77,4.14-8.11,7-3.62,14.55-5.84,22-8.28m15.29-.83c-.47,2.16.65,5,3,4.77,1.36.24,2.14-1.1,3-2,0-.87,0-1.73,0-2.58-.84-.86-1.66-2.1-2.94-1.95C477.34,386.91,476.5,388.12,475.63,388.94Z"/><path d="M487,387.21a6.54,6.54,0,0,0,4.62-2.33c7.38,4.6,14.5,9.7,21.64,14.73,5.41,4,10.9,7.85,15.82,12.53A8.37,8.37,0,0,1,532,419a16.15,16.15,0,0,1-6.89,11.44c-3,2-6.59,1.52-9.91,1.84-2.77.24-5,2.34-6.59,4.68-2,2.88-4.21,6-7.54,7-4.09,1.31-9,1.28-12.43-1.84-2.39-2.24-2.39-5.93-2.64-9.06-.6-15.28.37-30.55,1-45.8M491.7,390c-1.53.77-2.56,3.06-1.44,4.67a2.83,2.83,0,0,0,5.07.33C497.45,392.66,494.27,388.4,491.7,390Z"/><path d="M785.69,386.24c.78-.51,1.55-1,2.37-1.51a55.23,55.23,0,0,1,4.21,5.13c0-.31,0-.92,0-1.23a13.45,13.45,0,0,0,.6,2c.08.19.26.56.35.75.53,1.09,1.13,2.16,1.64,3.29a36.37,36.37,0,0,0,2.93,8.13,18,18,0,0,1-3.81,1.82c.43-.42.88-.82,1.35-1.23-1.24-4.1-2.76-8.2-5.34-11.55C788.54,390,787.06,388.15,785.69,386.24Z"/><path d="M198,388.43c-.38-1.09-.1-2.78,1.3-2.54,1.72-.24,1.44,1.88,1.32,3.08C199.77,388.8,198.56,389.38,198,388.43Z"/><path d="M475.63,388.94c.87-.82,1.71-2,3-1.77,1.28-.15,2.1,1.09,2.94,1.95,0,.85,0,1.71,0,2.58-.82.91-1.6,2.25-3,2C476.28,394,475.16,391.1,475.63,388.94Z"/><path d="M208.26,388.87c6.86,1.74,13.79,3.31,20.47,5.77a4.65,4.65,0,0,1,2.63,1.88c1.37,2.15.59,5.06-.54,7.12-1.41,2.42-4.45,2.37-6.19,4.34-1.29,1.88-1.36,4.52-2.95,6.2a7.73,7.73,0,0,1-5.8,2.17A4.56,4.56,0,0,1,213,413.6C210.33,407,208.62,400,206.72,393a10.13,10.13,0,0,1-.42-2,21,21,0,0,1,2-2.15m.78,5.05c1,.76,1.78-.61,2.53-1.12-.52-.79-.92-2.09-2-1.74C208.13,391.06,207.7,393.38,209,393.92Z"/><path d="M670,388.76c2-1.44,4.93.84,4.42,3.39-.07,2.74-3.51,3.53-5.13,1.86A3.63,3.63,0,0,1,670,388.76Z"/><path d="M799.8,389.25a7.09,7.09,0,0,1,6.49.58c1.87,1.19,4.14,1.72,6.16.57,1.47-.68,2.92-1.58,4.57-1.67a8.55,8.55,0,0,1,5,1.47,26.63,26.63,0,0,1,2.05,1.83,6.32,6.32,0,0,1,.51,5.4c-.29.75-.59,1.48-.87,2.21-.84,1.95-1.74,3.88-2.67,5.79-2.92,5.83-5.88,11.65-9.12,17.28a15.89,15.89,0,0,0-3.78.1c-1.16-2.06-2.19-4.21-3.4-6.23-1.76-3.3-3.45-6.65-5.16-10-.62-1.27-1.23-2.54-1.82-3.81a36.37,36.37,0,0,1-2.93-8.13,8.53,8.53,0,0,1,5-5.42m9.28,27c-2.08,1.42.11,5,2.12,3.48C813.33,418.33,811.06,414.41,809.08,416.21Z"/><path d="M203.16,389.82l2.53,1.19c.15,1.19.36,2.39.46,3.6.1,3.44.51,6.85.83,10.27-.07,3.34.18,6.68,0,10a4.13,4.13,0,0,1-2.1,3.77,7.59,7.59,0,0,1-6.21-.08c-1.86-1.06-2.68-3.46-4.52-4.51-2.34-.79-5.08.17-7.16-1.55s-3.76-4.63-2.55-7.32c1.47-2.27,3.75-3.69,5.71-5.4,4.15-3.6,8.72-6.6,13-10m-1.6,3.08c-.58.81.14,1.78.3,2.62.67-.37,1.9-.11,2.23-1C205.07,392.86,202.28,391.22,201.56,392.9Z"/><path d="M491.7,390c2.57-1.63,5.75,2.63,3.63,5a2.83,2.83,0,0,1-5.07-.33C489.14,393.09,490.17,390.8,491.7,390Z"/><path d="M209,393.92c-1.34-.54-.91-2.86.49-2.86,1.12-.35,1.52.95,2,1.74C210.82,393.31,210,394.68,209,393.92Z"/><path d="M201.56,392.9c.72-1.68,3.51,0,2.53,1.58-.33.93-1.56.67-2.23,1C201.7,394.68,201,393.71,201.56,392.9Z"/><path d="M294,393.87c2,1.5,3.38,3.86,5.67,4.92,3.56,1.82,8,2.34,10.51,6,1.62,2.56,3,5.6,2.88,8.78-.85.75-1.83,0-2.68-.28-2.79-1.19-5.39-2.89-8.28-3.8,1.81,3.94,6,5.21,9.11,7.53-4,.29-8.73-.08-11.56-3.65C295.46,408,295,400.56,294,393.87Z"/><path d="M681.31,397.09c2-1.44,4.89.94,4.37,3.43-.27,2.6-3.72,3.61-5.23,1.68A3.4,3.4,0,0,1,681.31,397.09Z"/><path d="M824.59,397.43c2.39,1.33,4.8,2.63,7.17,4a75.47,75.47,0,0,1-8-1.83C824,398.91,824.3,398.18,824.59,397.43Z"/><path d="M657.68,398.21c2-1.39,4.82.8,4.41,3.31a3,3,0,0,1-5.42,1.52A3.62,3.62,0,0,1,657.68,398.21Z"/><path d="M668.5,399.68a5.62,5.62,0,0,1,4.74-.28c.54.43,1.11.82,1.68,1.25a5.59,5.59,0,0,1,1.51,2.56,10.13,10.13,0,0,1-.18,4,7.67,7.67,0,0,1-4.41,3.33,4.07,4.07,0,0,1-1.31-.06,7.06,7.06,0,0,1-4-3.35c-.13-.29-.41-.85-.55-1.13a9,9,0,0,1,1.7-5.55Z"/><path d="M821.05,405.43c.93-1.91,1.83-3.84,2.67-5.79a75.47,75.47,0,0,0,8,1.83,61.94,61.94,0,0,0-5,4.88C824.91,405.8,823,405,821.05,405.43Z"/><path d="M779.86,406.14c1.36-2.93,4.23-5.85,7.49-5,1.93.76,3.27,2.57,4.77,4,1.8,1.88,3.53,3.85,5.24,5.84.43.53.9,1.07,1.36,1.61,3,3.59,6,7.1,8.8,10.87l-.14.53a21.93,21.93,0,0,0-.74,3.23c-7.94,1.87-15.86,4-23.92,5.1-2,.21-4.44.74-6-1-2.07-2.18-2.37-5.68-1.82-8.6.65-3.17,4-4.57,4.57-7.77.31-2.94-.92-6.06.43-8.84m20.81,16.79a2.75,2.75,0,0,0,.6,2.76c.94.4,2.44.44,2.86-.82.87-1.47-.63-2.6-1.57-3.36A9.74,9.74,0,0,0,800.67,422.93Z"/><path d="M831.76,401.47c3.45-1.73,6.75,1.33,8.42,4.39a11.66,11.66,0,0,1,.44,6.12c-.77,2.82.86,5.28,2.59,7.15,2.87,2.95,2.94,8.18.73,11.58-1.08,1.72-3.14,2-4.89,1.78-8.59-.87-16.92-3.43-25.37-5.11-.27-1.16-.52-2.33-.79-3.48,0-.18-.1-.54-.14-.72q6.74-8.69,14-16.83a61.94,61.94,0,0,1,5-4.88M817.1,425.26c1.33.31,1.81-1.28,2.5-2.16-.75-.75-1.37-2.31-2.59-2C814.89,421.2,814.93,425.42,817.1,425.26Z"/><path d="M794,404.62a18,18,0,0,0,3.81-1.82c.59,1.27,1.2,2.54,1.82,3.81-.78,1.43-1.53,2.89-2.23,4.36-1.71-2-3.44-4-5.24-5.84Z"/><path d="M821.05,405.43c2-.45,3.86.37,5.73.92q-7.29,8.13-14,16.83c0,.18.11.54.14.72a4.17,4.17,0,0,0-5.51.08l.14-.53c-2.77-3.77-5.84-7.28-8.8-10.87-.11-.89-.2-1.78-.27-2.66,2.42,1.87,3.85,4.83,6.3,6.66,1.21,2,2.24,4.17,3.4,6.23a15.89,15.89,0,0,1,3.78-.1C815.17,417.08,818.13,411.26,821.05,405.43Z"/><path d="M840.18,405.86c7,3.13,13.88,6.73,21.1,9.35,3.23,1.06,6.28,3,9.72,3.08,2.77,3.16,5.58,6.27,8.31,9.47-5-1.27-9.65-3.53-14.46-5.33-8.13-3.35-16.15-7-24.23-10.45A11.66,11.66,0,0,0,840.18,405.86Z"/><path d="M799.59,406.61c1.71,3.32,3.4,6.67,5.16,10-2.45-1.83-3.88-4.79-6.3-6.66.07.88.16,1.77.27,2.66-.46-.54-.93-1.08-1.36-1.61C798.06,409.5,798.81,408,799.59,406.61Z"/><path d="M632.44,423.91c11.13-6.11,22.52-11.64,34-16.79a7.06,7.06,0,0,0,4,3.35c-.79,12.32-2,24.62-3.66,36.85a92.19,92.19,0,0,1-2.51,13.13,7.79,7.79,0,0,1-6.8,5.23,14.27,14.27,0,0,1-11.1-3.7c-2.92-2.83-3.41-7.71-6.74-10.12-3.7-2.51-8.58-1.71-12.11-4.64a18.29,18.29,0,0,1-4-5l-.59-1.24-.4-1.06c-1.18-3.3-1.34-7.58,1.16-10.21,2.55-2.44,5.65-4.07,8.61-5.83m30-11.77c-2.18.93-2.26,4.68-.23,5.84a3,3,0,0,0,4.22-1.44C668,414,664.76,410.67,662.47,412.14Z"/><path d="M671.84,410.53a7.67,7.67,0,0,0,4.41-3.33c12,5.55,23.9,11.18,35.44,17.71,2.36,1.47,4.85,2.78,6.86,4.81,2.47,2.63,2.38,6.92,1.15,10.2-1.48,3.88-4.09,7.71-8,8.93-2.87,1-6.2.73-8.74,2.73-3.48,2.83-4.23,8.06-7.66,11a14.61,14.61,0,0,1-10.48,3.15,7.73,7.73,0,0,1-6.81-5.23,85.3,85.3,0,0,1-2.49-12.85q-2.46-18.47-3.72-37.08m5.21,1.82a3.31,3.31,0,0,0-1.74,3.22c-.18,1.8,1.36,3,2.65,3.76,2.39,0,4.41-3.51,2.81-5.72C680.11,412,678.37,412,677.05,412.35Z"/><path d="M341.6,409.81a15.57,15.57,0,0,1,10.93,5c3.43,3.91,3.7,9.65,3.5,14.76-.24,3.12.42,6.54-1.11,9.37-.92-1.81-1.74-3.77-3.26-5.08-3.41-2.94-7.35-5.14-10.59-8.31-1.9-2.86-1.83-6.65-1.94-10,.09-.89-.21-2.11.52-2.72,2.21.26,3.83,2.16,5.57,3.49,2,1.48,3.22,3.81,5.2,5.3.22-2.64-1.52-4.62-3.06-6.37C345.61,413.19,343.33,411.84,341.6,409.81Z"/><path d="M662.47,412.14c2.29-1.47,5.51,1.85,4,4.4a3,3,0,0,1-4.22,1.44C660.21,416.82,660.29,413.07,662.47,412.14Z"/><path d="M677.05,412.35c1.32-.35,3.06-.32,3.72,1.26,1.6,2.21-.42,5.69-2.81,5.72-1.29-.77-2.83-2-2.65-3.76A3.31,3.31,0,0,1,677.05,412.35Z"/><path d="M809.08,416.21c2-1.8,4.25,2.12,2.12,3.48C809.19,421.24,807,417.63,809.08,416.21Z"/><path d="M563.91,419.46a4.26,4.26,0,0,1,5.69.57,3.74,3.74,0,0,1-.68,3.75c-2.5,3.32-6,5.83-7.68,9.81a14.11,14.11,0,0,0-.09,11.32,28.34,28.34,0,0,0,4.68,8.21c0-2.6-1.36-5-1-7.62.63-4.74,4-8.57,7.9-10.58,1.69-.86,4.12-1.67,5.55.13,1,.89.2,2.3-.53,3-2.33,2.17-5.57,2.66-7.89,4.81a8.18,8.18,0,0,0-3,5.94,8.45,8.45,0,0,0,3,6.52,18.64,18.64,0,0,0,12.06,5.08c-1.89-1.45-4.26-2.66-4.94-5.27-.59-2.29-.85-5.3,1-7,1.28-1.4,3.36-2.43,5.05-1.19a3.42,3.42,0,0,1,.12,2.19c-1.3,1.18-3.06,1.63-4.22,3-1.09,2.36.74,4.67,2.46,5.91,3,2.07,6.68,1.62,10.07,1.63,3.76,0,7.3-1.63,10.63-3.38a98.57,98.57,0,0,0,10.1-5.91c4.07-2.74,7.13-6.82,10.53-10.41l.4,1.06c-5.51,6.05-11.48,11.82-18.63,15.47-7.3,3.75-15.43,6.25-23.55,5.46-7.66-1.34-15.21-5.25-19.88-12.18A26.21,26.21,0,0,1,556.47,436C556.27,429.58,559.05,423.09,563.91,419.46Z"/><path d="M817.1,425.26c-2.17.16-2.21-4.06-.09-4.12,1.22-.35,1.84,1.21,2.59,2C818.91,424,818.43,425.57,817.1,425.26Z"/><path d="M800.67,422.93a9.74,9.74,0,0,1,1.89-1.42c.94.76,2.44,1.89,1.57,3.36-.42,1.26-1.92,1.22-2.86.82A2.75,2.75,0,0,1,800.67,422.93Z"/><path d="M807.38,424a4.17,4.17,0,0,1,5.51-.08c.27,1.15.52,2.32.79,3.48l-.45.5a9.18,9.18,0,0,1-2.57,2c-.31,0-.94,0-1.25,0a9.3,9.3,0,0,1-2.43-2l-.34-.66A21.93,21.93,0,0,1,807.38,424Z"/><path d="M999,425.25a53.8,53.8,0,0,1,10.83.51c2.25-.08,4.26,1.18,6.43,1.67,4.21,1.08,7.56,4.84,9,9.2a75.07,75.07,0,0,1,4.31,17.47c-1.6-1.57-2.72-3.75-4.73-4.74-6.53-3.67-14.51-2.8-20.71-7.28-3.88-3-5.43-8.26-6.06-13.13a20.3,20.3,0,0,1,6.51,1.51c2.88,1.14,5.83,2.07,8.62,3.49,1.7.86,3.18,2.16,4.94,2.91-.57-2.12-2.34-3.32-3.85-4.57a34,34,0,0,0-6.79-3.83C1004.79,427.12,1001.61,427.05,999,425.25Z"/><path d="M980.06,430.38c3-3.33,7.67-3.62,11.66-3.14-2.79,2.21-7.26,3.09-8,7.4,2.94-2,5.9-4.05,9.44-4.41a23.1,23.1,0,0,1-1.74,8c-1,2.57-3.42,3.84-5.62,4.88-3.05,1.55-6.65,2.12-9.07,4.87-.7-.77-1.39-1.56-2-2.36C976.42,440.52,976.94,434.79,980.06,430.38Z"/><path d="M789.94,436.25c5.6-3,11.32-5.67,17-8.38a9.3,9.3,0,0,0,2.43,2l.3.19c-.78,8.59-1.45,17.2-2.81,25.71-.47,2.11-.56,4.54-2,6.18-2.27,2.18-5.76,1.66-8.28.3-2.34-1.18-3.07-4.05-4.47-6.16s-4-2.07-6.09-2.78c-2.74-.72-4.63-3.44-5.43-6.23-.66-2.05-.34-4.67,1.39-6a54.34,54.34,0,0,1,7.94-4.84m13.69-4.36c-1,1.41.62,2.58,1.5,3.37,1-.62,2.45-1.18,2.06-2.74C807.21,430.55,804.25,430.14,803.63,431.89Z"/><path d="M810.66,429.9a9.18,9.18,0,0,0,2.57-2c7.57,3.75,15.31,7.17,22.6,11.6,1.5,1,3.39,2,3.8,4.1.62,3.14-1,6.34-3.08,8.38-1.93,1.76-4.64,1.4-6.82,2.51-1.76,1-2.47,3.19-3.51,4.9a8,8,0,0,1-9.35,3.67c-2.14-.69-3-3.12-3.32-5.27-1.66-9.14-2.31-18.44-3.18-27.7l.29-.17m2.7,1.44a2.15,2.15,0,0,0-.26,3.11c1,1.49,3.42.43,3.25-1.37C816.57,431.39,814.48,430.26,813.36,431.34Z"/><path d="M856.56,432.81c3.71-2.66,8.32-2.52,12.59-2.88s8.26.66,12.4.54l.69.8c-4.07,1.19-8.35,1.18-12.36,2.61-4,1.19-8.46,3-10.4,7.36,4.12-3.11,9-4.4,13.94-5.17,3.9-.55,7.83-1.75,11.79-1.19-.37,5.18-3,10.7-7.72,12.5-8,3.15-16.83,1.16-24.89,3.94-2.37.87-4.13,2.87-6,4.57a105.14,105.14,0,0,1,3-11.38C850.89,440.06,852.75,435.37,856.56,432.81Z"/><path d="M803.63,431.89c.62-1.75,3.58-1.34,3.56.63.39,1.56-1.1,2.12-2.06,2.74C804.25,434.47,802.68,433.3,803.63,431.89Z"/><path d="M813.36,431.34c1.12-1.08,3.21.05,3,1.74.17,1.8-2.29,2.86-3.25,1.37A2.15,2.15,0,0,1,813.36,431.34Z"/><path d="M285.12,435.64c3.36-.14,7,.37,9.67,2.85s3.94,6.09,4.45,9.72c.34,2.68.95,5.36.72,8.09-2.09-1.58-4.13-3.29-6.58-4.13-3.26-1.3-7-2.5-8.84-6a14.74,14.74,0,0,1-1.65-6.89c.58-1.2,1.92-.62,2.77-.18,2.61,1.11,4.95,3,7.76,3.52C291.52,439.13,287.75,438.14,285.12,435.64Z"/><path d="M269,444.55c1-3.38,4.15-7.37,7.73-6-1.63,1.93-3.73,3.56-4.48,6.17,2.21-1.42,3.55-4.49,6.36-4.67.46,2.5.88,5.25-.33,7.6-1,2.37-3.2,3.56-5,5.09-1.74,1.32-2.87,3.33-4.37,4.93A35.5,35.5,0,0,1,269,444.55Z"/><path d="M587.32,472.39c14.61-5.67,27.17-16.63,36.34-30.14a18.29,18.29,0,0,0,4,5A72.3,72.3,0,0,1,595,474.87a90.65,90.65,0,0,1-24,6.36c-3.31,0-6.62.31-9.93.36l.2-.74a17.52,17.52,0,0,0,.58-4.62C570.48,477.28,579.19,475.44,587.32,472.39Z"/><path d="M520.65,452.35c.54-2.8,3.28-4.35,5.71-4.64s4.2,1.88,6.5,1.93c2.52-.39,4.76-2.63,7.42-1.79,2.64.54,5.74,3.17,4.64,6.44-2.77,7.46-6.85,14.22-10.5,21.2-1-.08-2.07-.07-3.09-.05-2.91-5.38-5.87-10.73-8.47-16.29-.9-2.18-2.31-4.33-2.21-6.8M533,470.1c-1.88-.12-2.1,3.27-.14,3.15C534.88,473.67,534.9,470,533,470.1Z"/><path d="M508.44,461.34c1.21-2.32,3.77-4.55,6.34-3.38,2.93,2,5.14,5,7.55,7.61,2.66,3.13,5.32,6.27,7.88,9.5,1.09,1.08,0,2.64-.15,3.89-5.45,1.36-10.93,2.68-16.45,3.68-2.29.31-4.66,1-6.93.43-2.53-1.2-3.1-4.74-2.65-7.39.37-2.48,2.7-3.71,3.62-5.87.71-2.76-.77-5.9.79-8.47m18.23,13.45c-1.65.23-1.57,3.42.25,3.14C529.05,478.15,528.69,474.19,526.67,474.79Z"/><path d="M551.33,457.81c2.65-.81,5.06,1.53,6.19,3.93s-.2,5.17.47,7.67c1,2.45,3.6,3.95,3.88,6.82a17.52,17.52,0,0,1-.58,4.62,4.1,4.1,0,0,1-4.23,2.45c-7.16-.75-14.19-2.57-21.19-4.32l-.09-.33c-.26-.81-.48-1.61-.74-2.39l-.14-.43c3.78-4.55,7.45-9.21,11.44-13.54,1.54-1.63,3-3.49,5-4.48m-14.67,17.83c.56.66,1,2.23,2.14,1.78a1.61,1.61,0,0,0,.51-2.95C538.33,473.47,537.42,475.14,536.66,475.64Z"/><path d="M533,470.1c1.87-.08,1.85,3.57-.14,3.15C530.93,473.37,531.15,470,533,470.1Z"/><path d="M536.66,475.64c.76-.5,1.67-2.17,2.65-1.17a1.61,1.61,0,0,1-.51,2.95C537.7,477.87,537.22,476.3,536.66,475.64Z"/><path d="M526.67,474.79c2-.6,2.38,3.36.25,3.14C525.1,478.21,525,475,526.67,474.79Z"/><path d="M531.33,475.44c1,0,2,0,3.09.05l.62.77c.26.78.48,1.58.74,2.39l-.7,1.2-1.79,1.23-.8,0a19.27,19.27,0,0,1-1.93-1.52A8.94,8.94,0,0,1,531.33,475.44Z"/><path d="M512.85,488.3a174,174,0,0,1,17.71-8.72,19.27,19.27,0,0,0,1.93,1.52c-.3,6.43-1,12.82-1.87,19.19-.39,2.13-.52,4.4-1.53,6.33-1.65,2.41-5,2-7.16.84s-2.67-4.07-4.35-5.77c-1.19-.89-2.69-1-4-1.43-3-.62-4.94-3.91-5-7,0-2.66,2.54-3.8,4.34-4.93m15.28-6.09c-1.13,1.07.13,3.19,1.5,2.62,1.15-.17.85-1.72,1.06-2.61C529.88,482,528.77,481.29,528.13,482.21Z"/><path d="M535.08,479.85c.72-.28,1.42.31,2.12.52,5.3,2.5,10.61,5,15.74,7.94,1.51,1,3.44,1.81,4.12,3.75.64,2.52-.65,5.15-2.31,6.84s-4.33,1.24-6.23,2.55c-1.85,1.72-2.36,4.79-4.67,6s-5.53,1.56-7.2-.8c-1.15-2.56-1.32-5.48-1.76-8.24-.71-5.76-1.37-11.53-1.6-17.33l1.79-1.23m1.15,1.89c-2.05.26-1.53,3.77.39,3.32S538.06,481.69,536.23,481.74Z"/><path d="M528.13,482.21c.64-.92,1.75-.17,2.56,0-.21.89.09,2.44-1.06,2.61C528.26,485.4,527,483.28,528.13,482.21Z"/><path d="M536.23,481.74c1.83-.05,2.24,3,.39,3.32S534.18,482,536.23,481.74Z"/></g></svg>